<svg height="800" width="800" xmlns="http://www.w3.org/2000/svg" viewBox="0 0 512 512" xml:space="preserve"><path style="fill:#f0aeb0" d="m427.694 75.933-192.337 181.03h119.481L477.293 126.86zM471.149 244.078 285.957 461.95c120.328 0 217.872-97.545 217.872-217.872h-32.68z"/><path style="fill:#f7cac9" d="M8.17 244.078c0 46.406 34.544 84.744 79.32 90.702v-.698c34.257 75.42 110.235 127.869 198.468 127.869 102.278 0 185.191-97.545 185.191-217.872H8.17v-.001zM498.022 112.661l-56.817-56.817c-7.742-7.743-20.296-7.743-28.038 0-7.742 7.742-7.742 20.296 0 28.039l56.817 56.817c7.742 7.743 20.296 7.743 28.038 0 7.744-7.744 7.744-20.296 0-28.039z"/><path d="m503.842 235.908-117.811-.168 81.401-86.491c10.947 8.048 26.473 7.124 36.367-2.771 5.288-5.288 8.201-12.318 8.201-19.797 0-7.478-2.912-14.509-8.2-19.797l-56.817-56.817c-10.918-10.916-28.676-10.916-39.594 0-9.896 9.896-10.821 25.419-2.771 36.367L247.116 234.668a8.06 8.06 0 0 0-.789.871l-238.145-.34H8.17a8.171 8.171 0 0 0-8.17 8.17c0 48.251 34.921 89.647 81.941 98.102a226.716 226.716 0 0 0 55.898 73.362 225.635 225.635 0 0 0 63.729 38.947h-13.653a8.17 8.17 0 0 0-8.17 8.17 8.17 8.17 0 0 0 8.17 8.17H384a8.17 8.17 0 0 0 8.17-8.17 8.17 8.17 0 0 0-8.17-8.17h-13.687C453.29 420.281 512 338.912 512 244.078a8.17 8.17 0 0 0-8.158-8.17zM415.943 98.215l22.204 22.203a8.15 8.15 0 0 0 5.778 2.393 8.17 8.17 0 0 0 5.778-13.947L421.909 81.07l-.015-.016-2.949-2.948c-4.545-4.545-4.545-11.939 0-16.484 4.545-4.545 11.938-4.545 16.483 0l56.818 56.818c2.201 2.202 3.414 5.129 3.414 8.242s-1.212 6.041-3.415 8.242c-4.544 4.544-11.937 4.545-16.483 0l-2.949-2.949c-1.563-1.563-3.662-2.404-5.901-2.392a8.17 8.17 0 0 0-5.827 2.57l-96.816 102.868a7.957 7.957 0 0 0-.577.69l-93.694-.134L415.943 98.215zM285.957 453.78c-102.928 0-192.073-76.625-207.358-178.236a8.174 8.174 0 0 0-8.069-6.956 8.17 8.17 0 0 0-8.091 9.387 224.234 224.234 0 0 0 11.532 44.689c-31.16-10.111-53.966-38.08-57.229-71.112l478.759.684c-4.298 111.866-96.644 201.544-209.544 201.544z"/></svg>